<?xml version="1.0" standalone="no"?>
<!DOCTYPE svg PUBLIC "-//W3C//DTD SVG 20010904//EN"
 "http://www.w3.org/TR/2001/REC-SVG-20010904/DTD/svg10.dtd">
<svg version="1.0" xmlns="http://www.w3.org/2000/svg"
 width="500.000000pt" height="500.000000pt" viewBox="0 0 500.000000 500.000000"
 preserveAspectRatio="xMidYMid meet">

<g transform="translate(0.000000,500.000000) scale(0.100000,-0.100000)"
fill="#000000" stroke="none">
<path d="M1696 2918 c-13 -150 -16 -380 -6 -442 29 -182 131 -316 313 -412
l68 -36 76 44 c98 55 209 164 246 240 52 109 60 169 53 416 -4 123 -10 230
-13 238 -4 12 -62 14 -368 14 l-363 0 -6 -62z m420 -15 c-4 -21 -10 -53 -13
-72 l-6 -34 64 5 c35 3 72 9 82 13 15 6 17 0 17 -53 l0 -61 -32 10 c-18 5 -54
9 -80 9 l-48 0 0 -46 0 -47 83 5 c45 3 90 9 100 13 15 6 17 0 17 -55 0 -55 -2
-61 -17 -55 -10 4 -55 10 -100 13 l-83 5 0 -77 0 -76 -35 0 -35 0 0 76 0 77
-82 -5 c-46 -3 -91 -9 -100 -13 -16 -6 -18 0 -18 55 0 55 2 61 18 55 9 -4 54
-10 100 -13 l82 -5 0 48 0 47 -62 -4 c-35 -3 -71 -8 -80 -13 -16 -6 -18 0 -18
55 0 55 2 61 17 55 10 -3 47 -9 82 -12 l64 -6 -7 49 c-4 27 -10 59 -13 72 -5
21 -2 22 52 22 l57 0 -6 -37z"/>
<path d="M1050 2180 l0 -630 1450 0 1450 0 0 630 0 630 -729 0 -729 0 -4 -192
c-4 -167 -8 -201 -28 -256 -32 -89 -112 -196 -194 -259 -79 -60 -175 -113
-202 -113 -11 0 -55 21 -99 47 -103 59 -222 177 -262 258 -51 103 -58 144 -57
338 l0 177 -298 0 -298 0 0 -630z"/>
</g>
</svg>
